<?xml version="1.0" standalone="no"?>
<!DOCTYPE svg PUBLIC "-//W3C//DTD SVG 20010904//EN"
 "http://www.w3.org/TR/2001/REC-SVG-20010904/DTD/svg10.dtd">
<svg version="1.0" xmlns="http://www.w3.org/2000/svg"
 width="48.000000pt" height="48.000000pt" viewBox="0 0 48.000000 48.000000"
 preserveAspectRatio="xMidYMid meet">

<g transform="translate(0.000000,48.000000) scale(0.100000,-0.100000)"
fill="#000000" stroke="none">
<path d="M0 410 c0 -63 2 -70 20 -70 16 0 20 7 20 37 l0 38 27 -27 c23 -23 24
-29 13 -43 -18 -22 2 -44 25 -25 23 19 46 -4 38 -41 -8 -40 14 -87 48 -105 25
-12 29 -20 29 -56 l0 -41 -25 23 c-20 19 -28 21 -37 12 -10 -10 -2 -23 35 -60
l47 -47 47 47 c37 37 45 50 35 60 -9 9 -17 7 -37 -12 l-25 -23 0 41 c0 36 4
44 29 56 34 18 56 65 48 105 -5 22 0 34 22 55 32 31 38 32 63 9 27 -24 49 -2
25 25 -22 24 -21 31 5 59 17 18 19 26 10 35 -9 9 -17 7 -35 -10 -29 -27 -39
-27 -62 -2 -14 15 -21 17 -32 8 -11 -9 -10 -15 7 -33 26 -27 25 -37 -4 -64
-22 -21 -27 -22 -60 -10 -30 11 -42 11 -72 0 -43 -15 -66 -3 -44 24 19 23 -2
44 -25 25 -14 -11 -20 -10 -43 13 l-27 27 38 0 c30 0 37 4 37 20 0 18 -7 20
-70 20 l-70 0 0 -70z m280 -110 c11 -11 20 -29 20 -40 0 -26 -34 -60 -60 -60
-26 0 -60 34 -60 60 0 11 9 29 20 40 11 11 29 20 40 20 11 0 29 -9 40 -20z"/>
</g>
</svg>
