<?xml version="1.0" standalone="no"?>
<!DOCTYPE svg PUBLIC "-//W3C//DTD SVG 20010904//EN"
 "http://www.w3.org/TR/2001/REC-SVG-20010904/DTD/svg10.dtd">
<svg version="1.0" xmlns="http://www.w3.org/2000/svg"
 width="48.000000pt" height="48.000000pt" viewBox="0 0 48.000000 48.000000"
 preserveAspectRatio="xMidYMid meet">

<g transform="translate(0.000000,48.000000) scale(0.100000,-0.100000)"
fill="#fff" stroke="none">
<path d="M97 382 c-16 -17 -13 -21 43 -77 l60 -59 -60 -61 c-58 -59 -60 -62
-42 -78 17 -16 21 -13 77 43 l59 60 61 -60 c59 -58 62 -60 78 -42 16 17 13 21
-43 77 l-60 59 60 61 c58 59 60 62 42 78 -17 16 -21 13 -77 -43 l-59 -60 -61
60 c-59 58 -62 60 -78 42z"/>
</g>
</svg>
